<svg width="17" height="18" viewBox="0 0 17 18" fill="none" xmlns="http://www.w3.org/2000/svg">
<g clip-path="url(#clip0)">
<path d="M12.2964 0.75H4.90329C2.39261 0.75 0.350006 2.7927 0.350006 5.30338V12.6965C0.350006 15.2073 2.39261 17.2499 4.90329 17.2499H12.2964C14.8073 17.2499 16.8499 15.2072 16.8499 12.6965V5.30338C16.85 2.7927 14.8073 0.75 12.2964 0.75ZM15.3861 12.6965C15.3861 14.4001 14.0001 15.7859 12.2965 15.7859H4.90329C3.19983 15.786 1.81396 14.4001 1.81396 12.6965V5.30338C1.81396 3.59992 3.19983 2.21395 4.90329 2.21395H12.2964C14 2.21395 15.386 3.59992 15.386 5.30338V12.6965H15.3861Z" fill="#F2994A"/>
<path d="M8.59997 4.74857C6.25559 4.74857 4.34836 6.6558 4.34836 9.00017C4.34836 11.3444 6.25559 13.2516 8.59997 13.2516C10.9443 13.2516 12.8516 11.3444 12.8516 9.00017C12.8516 6.6558 10.9443 4.74857 8.59997 4.74857ZM8.59997 11.7875C7.06291 11.7875 5.81231 10.5371 5.81231 9.00007C5.81231 7.46293 7.06282 6.21242 8.59997 6.21242C10.1371 6.21242 11.3876 7.46293 11.3876 9.00007C11.3876 10.5371 10.137 11.7875 8.59997 11.7875Z" fill="#F2994A"/>
<path d="M13.0299 3.5072C12.7478 3.5072 12.4708 3.62139 12.2716 3.82146C12.0714 4.02056 11.9563 4.29774 11.9563 4.58077C11.9563 4.86292 12.0715 5.13999 12.2716 5.34007C12.4707 5.53917 12.7478 5.65433 13.0299 5.65433C13.3129 5.65433 13.5891 5.53917 13.7892 5.34007C13.9893 5.13999 14.1034 4.86282 14.1034 4.58077C14.1034 4.29774 13.9893 4.02056 13.7892 3.82146C13.5901 3.62139 13.3129 3.5072 13.0299 3.5072Z" fill="#F2994A"/>
</g>
<defs>
<clipPath id="clip0">
<rect width="16.5" height="16.5" fill="white" transform="translate(0.350006 0.75)"/>
</clipPath>
</defs>
</svg>
