<svg width="14" height="26" viewBox="0 0 14 26" fill="none" xmlns="http://www.w3.org/2000/svg">
<path d="M1.1701 0.415581L0.3883 1.26725C0.144143 1.53528 0.00963546 1.89188 0.00963546 2.27301C0.00963546 2.65392 0.144143 3.01095 0.3883 3.27899L9.2454 12.9942L0.378472 22.7206C0.134315 22.9882 0 23.3452 0 23.7261C0 24.1071 0.134315 24.4643 0.378472 24.7321L1.15546 25.584C1.66073 26.1387 2.48377 26.1387 2.98904 25.584L13.5841 14.0035C13.8281 13.7359 14 13.3793 14 12.995V12.9906C14 12.6095 13.8279 12.2529 13.5841 11.9853L3.01776 0.415581C2.77379 0.147547 2.43887 0.000421524 2.09162 0C1.74417 0 1.41387 0.147547 1.1701 0.415581Z" fill="white"/>
</svg>
