<svg width="14" height="26" viewBox="0 0 14 26" fill="none" xmlns="http://www.w3.org/2000/svg">
<path d="M12.8299 25.5844L13.6117 24.7328C13.8559 24.4647 13.9904 24.1081 13.9904 23.727C13.9904 23.3461 13.8559 22.989 13.6117 22.721L4.75461 13.0058L13.6215 3.27941C13.8657 3.0118 14 2.65477 14 2.27386C14 1.89294 13.8657 1.5357 13.6215 1.26788L12.8445 0.416003C12.3393 -0.138668 11.5162 -0.138668 11.011 0.416004L0.415857 11.9965C0.171893 12.2641 -8.04015e-07 12.6207 -7.70418e-07 13.005L-7.7003e-07 13.0094C-7.36711e-07 13.3905 0.172086 13.7471 0.415858 14.0147L10.9822 25.5844C11.2262 25.8525 11.5611 25.9996 11.9084 26C12.2558 26 12.5861 25.8525 12.8299 25.5844Z" fill="white"/>
</svg>
