<svg width="60" height="40" viewBox="0 0 60 40" fill="none" xmlns="http://www.w3.org/2000/svg">
<path d="M53.8753 12.6806C52.8721 12.6806 52.0589 13.4939 52.0589 14.497V26.8538C52.0589 27.8571 51.2456 28.6704 50.2425 28.6704H9.75762C8.75437 28.6704 7.94121 27.8571 7.94121 26.8538V14.4971C7.94121 13.4939 7.12793 12.6807 6.1248 12.6807H2.2125C0.990586 12.6807 0 13.6713 0 14.8932V33.6201C0 34.6234 0.813281 35.4365 1.81641 35.4365H7.73438V37.5511C7.73438 38.5006 8.46398 39.3204 9.41262 39.3623C10.4196 39.4066 11.25 38.6033 11.25 37.6061V35.4365H48.75V37.5511C48.75 38.5006 49.4796 39.3204 50.4282 39.3623C51.4352 39.4067 52.2656 38.6034 52.2656 37.6063V35.4367H58.1836C59.1868 35.4367 60 34.6234 60 33.6203V14.8931C60 13.6712 59.0094 12.6806 57.7875 12.6806H53.8753Z" fill="#F2994A"/>
<path d="M11.4568 14.8933V18.1398H28.243V2.16737C27.2405 1.22002 25.8913 0.636078 24.4116 0.636078H12.6011C9.527 0.636078 7.01181 3.15127 7.01181 6.22534V9.3117C9.55431 9.89635 11.4568 12.1761 11.4568 14.8933Z" fill="#FFC795"/>
<path d="M28.2429 21.6554H11.4568V22.5252V25.1547H28.2491C28.2463 25.1143 28.2429 25.074 28.2429 25.0329V22.5252V21.6554Z" fill="#F2994A"/>
<path d="M48.5432 14.8935C48.5432 12.1755 50.4464 9.89542 52.9896 9.31147V6.22534C52.9896 3.15127 50.4744 0.636078 47.4004 0.636078H35.59C34.1103 0.636078 32.7611 1.21991 31.7585 2.16737V18.1398H48.5432V14.8935Z" fill="#FFC795"/>
<path d="M48.5432 22.5253V21.6555H31.7585V22.5253V25.033C31.7585 25.0741 31.7551 25.1144 31.7524 25.1549H48.5433V22.5253H48.5432Z" fill="#F2994A"/>
</svg>
