<svg width="18" height="11" viewBox="0 0 18 11" fill="none" xmlns="http://www.w3.org/2000/svg">
<path fill-rule="evenodd" clip-rule="evenodd" d="M8.8228 10.2092H9.80907C9.80907 10.2092 10.107 10.1753 10.2591 10.0055C10.3991 9.84955 10.3946 9.55674 10.3946 9.55674C10.3946 9.55674 10.3753 8.18598 10.9895 7.98412C11.595 7.78528 12.3725 9.30895 13.1966 9.89479C13.8198 10.3382 14.2933 10.241 14.2933 10.241L16.4968 10.2092C16.4968 10.2092 17.6495 10.1356 17.1029 9.19688C17.0581 9.12008 16.7846 8.50245 15.4646 7.23331C14.083 5.905 14.268 6.11985 15.9323 3.82217C16.9459 2.42287 17.3511 1.56857 17.2246 1.20268C17.1038 0.854188 16.3584 0.946299 16.3584 0.946299L13.8773 0.962309C13.8773 0.962309 13.6934 0.936322 13.557 1.02078C13.4237 1.10361 13.3379 1.29665 13.3379 1.29665C13.3379 1.29665 12.9453 2.37948 12.4216 3.30036C11.3168 5.24352 10.8751 5.34607 10.6945 5.22542C10.2745 4.94421 10.3794 4.09572 10.3794 3.49294C10.3794 1.60987 10.6551 0.824722 9.84244 0.621474C9.57275 0.553956 9.37429 0.509409 8.68459 0.502216C7.79935 0.492703 7.05007 0.505 6.62582 0.720313C6.34358 0.863469 6.12585 1.18249 6.25846 1.20082C6.42243 1.22356 6.79382 1.30454 6.99071 1.58226C7.24495 1.9405 7.23599 2.74514 7.23599 2.74514C7.23599 2.74514 7.38204 4.96185 6.89484 5.23725C6.56041 5.42612 6.10166 5.0405 5.11674 3.27762C4.61207 2.37461 4.23105 1.37646 4.23105 1.37646C4.23105 1.37646 4.15758 1.18992 4.02654 1.09015C3.8675 0.969269 3.64529 0.930755 3.64529 0.930755L1.2877 0.946763C1.2877 0.946763 0.933784 0.956972 0.803865 1.11637C0.688281 1.25813 0.794681 1.5514 0.794681 1.5514C0.794681 1.5514 2.64043 6.02426 4.73034 8.27832C6.64665 10.3449 8.8228 10.2092 8.8228 10.2092Z" fill="#F2994A"/>
</svg>
